<svg xmlns="http://www.w3.org/2000/svg" version="1.1" xmlns:xlink="http://www.w3.org/1999/xlink" xmlns:svgjs="http://svgjs.dev/svgjs" width="1440" height="560" preserveAspectRatio="none" viewBox="0 0 1440 560"><g mask="url(&quot;#SvgjsMask1020&quot;)" fill="none"><path d="M1419 454L1418 621" stroke-width="8" stroke="url(&quot;#SvgjsLinearGradient1021&quot;)" stroke-linecap="round" class="Down"></path><path d="M605 121L604 -38" stroke-width="8" stroke="url(&quot;#SvgjsLinearGradient1022&quot;)" stroke-linecap="round" class="Up"></path><path d="M492 473L491 741" stroke-width="10" stroke="url(&quot;#SvgjsLinearGradient1022&quot;)" stroke-linecap="round" class="Up"></path><path d="M847 370L846 120" stroke-width="10" stroke="url(&quot;#SvgjsLinearGradient1022&quot;)" stroke-linecap="round" class="Up"></path><path d="M1170 465L1169 649" stroke-width="8" stroke="url(&quot;#SvgjsLinearGradient1021&quot;)" stroke-linecap="round" class="Down"></path><path d="M524 326L523 519" stroke-width="10" stroke="url(&quot;#SvgjsLinearGradient1022&quot;)" stroke-linecap="round" class="Up"></path><path d="M1038 500L1037 714" stroke-width="10" stroke="url(&quot;#SvgjsLinearGradient1022&quot;)" stroke-linecap="round" class="Up"></path><path d="M678 301L677 588" stroke-width="10" stroke="url(&quot;#SvgjsLinearGradient1021&quot;)" stroke-linecap="round" class="Down"></path><path d="M753 545L752 178" stroke-width="8" stroke="url(&quot;#SvgjsLinearGradient1021&quot;)" stroke-linecap="round" class="Down"></path><path d="M1343 498L1342 744" stroke-width="6" stroke="url(&quot;#SvgjsLinearGradient1022&quot;)" stroke-linecap="round" class="Up"></path><path d="M6 374L5 223" stroke-width="10" stroke="url(&quot;#SvgjsLinearGradient1021&quot;)" stroke-linecap="round" class="Down"></path><path d="M1085 424L1084 118" stroke-width="8" stroke="url(&quot;#SvgjsLinearGradient1021&quot;)" stroke-linecap="round" class="Down"></path><path d="M1347 465L1346 137" stroke-width="6" stroke="url(&quot;#SvgjsLinearGradient1021&quot;)" stroke-linecap="round" class="Down"></path><path d="M959 242L958 -104" stroke-width="8" stroke="url(&quot;#SvgjsLinearGradient1021&quot;)" stroke-linecap="round" class="Down"></path><path d="M829 150L828 -265" stroke-width="8" stroke="url(&quot;#SvgjsLinearGradient1022&quot;)" stroke-linecap="round" class="Up"></path><path d="M767 314L766 -37" stroke-width="6" stroke="url(&quot;#SvgjsLinearGradient1021&quot;)" stroke-linecap="round" class="Down"></path><path d="M156 67L155 -87" stroke-width="10" stroke="url(&quot;#SvgjsLinearGradient1021&quot;)" stroke-linecap="round" class="Down"></path><path d="M372 473L371 772" stroke-width="8" stroke="url(&quot;#SvgjsLinearGradient1021&quot;)" stroke-linecap="round" class="Down"></path><path d="M766 49L765 288" stroke-width="10" stroke="url(&quot;#SvgjsLinearGradient1021&quot;)" stroke-linecap="round" class="Down"></path><path d="M1229 29L1228 397" stroke-width="10" stroke="url(&quot;#SvgjsLinearGradient1021&quot;)" stroke-linecap="round" class="Down"></path><path d="M1146 393L1145 785" stroke-width="10" stroke="url(&quot;#SvgjsLinearGradient1022&quot;)" stroke-linecap="round" class="Up"></path><path d="M633 286L632 483" stroke-width="10" stroke="url(&quot;#SvgjsLinearGradient1022&quot;)" stroke-linecap="round" class="Up"></path><path d="M1190 167L1189 502" stroke-width="6" stroke="url(&quot;#SvgjsLinearGradient1022&quot;)" stroke-linecap="round" class="Up"></path><path d="M1170 293L1169 495" stroke-width="8" stroke="url(&quot;#SvgjsLinearGradient1021&quot;)" stroke-linecap="round" class="Down"></path><path d="M631 514L630 758" stroke-width="8" stroke="url(&quot;#SvgjsLinearGradient1022&quot;)" stroke-linecap="round" class="Up"></path><path d="M562 148L561 -160" stroke-width="10" stroke="url(&quot;#SvgjsLinearGradient1022&quot;)" stroke-linecap="round" class="Up"></path><path d="M1244 250L1243 -96" stroke-width="10" stroke="url(&quot;#SvgjsLinearGradient1022&quot;)" stroke-linecap="round" class="Up"></path><path d="M214 87L213 470" stroke-width="10" stroke="url(&quot;#SvgjsLinearGradient1022&quot;)" stroke-linecap="round" class="Up"></path><path d="M1128 275L1127 66" stroke-width="8" stroke="url(&quot;#SvgjsLinearGradient1021&quot;)" stroke-linecap="round" class="Down"></path><path d="M609 358L608 52" stroke-width="8" stroke="url(&quot;#SvgjsLinearGradient1021&quot;)" stroke-linecap="round" class="Down"></path><path d="M79 10L78 207" stroke-width="8" stroke="url(&quot;#SvgjsLinearGradient1021&quot;)" stroke-linecap="round" class="Down"></path><path d="M1247 388L1246 202" stroke-width="8" stroke="url(&quot;#SvgjsLinearGradient1022&quot;)" stroke-linecap="round" class="Up"></path><path d="M271 366L270 28" stroke-width="8" stroke="url(&quot;#SvgjsLinearGradient1021&quot;)" stroke-linecap="round" class="Down"></path><path d="M1004 186L1003 -163" stroke-width="6" stroke="url(&quot;#SvgjsLinearGradient1022&quot;)" stroke-linecap="round" class="Up"></path><path d="M1217 408L1216 218" stroke-width="8" stroke="url(&quot;#SvgjsLinearGradient1021&quot;)" stroke-linecap="round" class="Down"></path><path d="M1385 281L1384 447" stroke-width="10" stroke="url(&quot;#SvgjsLinearGradient1022&quot;)" stroke-linecap="round" class="Up"></path></g><defs><mask id="SvgjsMask1020"><rect width="1440" height="560" fill="#ffffff"></rect></mask><linearGradient x1="0%" y1="0%" x2="0%" y2="100%" id="SvgjsLinearGradient1021"><stop stop-color="rgba(214, 216, 230, 0)" offset="0"></stop><stop stop-color="rgba(214, 216, 230, 1)" offset="1"></stop></linearGradient><linearGradient x1="0%" y1="100%" x2="0%" y2="0%" id="SvgjsLinearGradient1022"><stop stop-color="rgba(214, 216, 230, 0)" offset="0"></stop><stop stop-color="rgba(214, 216, 230, 1)" offset="1"></stop></linearGradient></defs></svg>