<?xml version="1.0" standalone="no"?>
<svg xmlns:xlink="http://www.w3.org/1999/xlink" id="wave" style="transform:rotate(180deg); transition: 0.3s" viewBox="0 0 1440 170" version="1.1" xmlns="http://www.w3.org/2000/svg"><defs><linearGradient id="sw-gradient-0" x1="0" x2="0" y1="1" y2="0"><stop stop-color="rgba(113.486, 165.942, 234.039, 1)" offset="0%"/><stop stop-color="rgba(255, 255, 255, 1)" offset="100%"/></linearGradient></defs><path style="transform:translate(0, 0px); opacity:1" fill="url(#sw-gradient-0)" d="M0,17L30,22.7C60,28,120,40,180,39.7C240,40,300,28,360,19.8C420,11,480,6,540,14.2C600,23,660,45,720,51C780,57,840,45,900,36.8C960,28,1020,23,1080,42.5C1140,62,1200,108,1260,113.3C1320,119,1380,85,1440,82.2C1500,79,1560,108,1620,99.2C1680,91,1740,45,1800,34C1860,23,1920,45,1980,62.3C2040,79,2100,91,2160,85C2220,79,2280,57,2340,59.5C2400,62,2460,91,2520,104.8C2580,119,2640,119,2700,116.2C2760,113,2820,108,2880,104.8C2940,102,3000,102,3060,93.5C3120,85,3180,68,3240,62.3C3300,57,3360,62,3420,76.5C3480,91,3540,113,3600,124.7C3660,136,3720,136,3780,133.2C3840,130,3900,125,3960,107.7C4020,91,4080,62,4140,59.5C4200,57,4260,79,4290,90.7L4320,102L4320,170L4290,170C4260,170,4200,170,4140,170C4080,170,4020,170,3960,170C3900,170,3840,170,3780,170C3720,170,3660,170,3600,170C3540,170,3480,170,3420,170C3360,170,3300,170,3240,170C3180,170,3120,170,3060,170C3000,170,2940,170,2880,170C2820,170,2760,170,2700,170C2640,170,2580,170,2520,170C2460,170,2400,170,2340,170C2280,170,2220,170,2160,170C2100,170,2040,170,1980,170C1920,170,1860,170,1800,170C1740,170,1680,170,1620,170C1560,170,1500,170,1440,170C1380,170,1320,170,1260,170C1200,170,1140,170,1080,170C1020,170,960,170,900,170C840,170,780,170,720,170C660,170,600,170,540,170C480,170,420,170,360,170C300,170,240,170,180,170C120,170,60,170,30,170L0,170Z"/></svg>